
PLOT

Remy is a young rat in the French countryside who arrives in Paris, only to find out that
his cooking idol is dead. When he makes an unusual alliance with a restaurant's new garbage
boy, the culinary and personal adventures begin despite Remy's family's skepticism and the
rat-hating world of humans.

 
http://www.imdb.com/title/tt0382932/

Encoded By .........: BigPerm1828
Runtime ..........: 1h 50mn
File Size ........: 753 MiB
Resolution .......: 704 x 396
IMDb URL .........: http://www.imdb.com/title/tt0382932/
Genre ............: Animation | Comedy | Family
Language .........: English
Video
ID : 0
Format : MPEG-4 Visual
Format profile : Advanced Simple@L5
Format settings, BVOP : Yes
Format settings, QPel : No
Format settings, GMC : No warppoints
Format settings, Matrix : Default (H.263)
Codec ID : XVID
Codec ID/Hint : XviD
Duration : 1h 50mn
Bit rate : 500 Kbps
Width : 704 pixels
Height : 396 pixels
Display aspect ratio : 16:9
Frame rate : 23.976 fps
Color space : YUV
Chroma subsampling : 4:2:0
Bit depth : 8 bits
Scan type : Progressive
Compression mode : Lossy
Bits/(Pixel*Frame) : 0.075
Stream size : 395 MiB (52%)
Writing library : XviD 1.2.1 (UTC 2008-12-04)

Audio
ID : 1
Format : AC-3
Format/Info : Audio Coding 3
Mode extension : CM (complete main)
Codec ID : 2000
Duration : 1h 50mn
Bit rate mode : Constant
Bit rate : 448 Kbps
Channel(s) : 6 channels
Channel positions : Front: L C R, Side: L R, LFE
Sampling rate : 48.0 KHz
Bit depth : 16 bits
Compression mode : Lossy
Video delay : 42ms
Stream size : 354 MiB (47%)
Alignment : Split accross interleaves
Interleave, duration : 500 ms (11.99 video frames)
Interleave, preload duration : 500 ms
 
http://leetleech.org/images/19232836182477304529.png
 
http://leetleech.org/images/03721523558988688610.png
 
http://leetleech.org/images/55064052364945744629.png
 
http://leetleech.org/images/13497027935791040378.png